<svg width="24" height="24" viewBox="0 0 24 24" fill="none" xmlns="http://www.w3.org/2000/svg">
<path d="M8.58596 15.193C8.15322 14.9006 7.85358 14.4737 7.69001 13.9092L8.69453 13.4952C8.78572 13.8426 8.94489 14.1118 9.17215 14.3028C9.39798 14.4939 9.67298 14.588 9.99429 14.588C10.3229 14.588 10.6051 14.4881 10.841 14.2883C11.0768 14.0886 11.1956 13.8338 11.1956 13.5256C11.1956 13.2101 11.0711 12.9524 10.8222 12.7527C10.5732 12.5531 10.2606 12.4531 9.88715 12.4531H9.30679V11.4588H9.82775C10.1491 11.4588 10.4198 11.372 10.6398 11.1983C10.8598 11.0246 10.9698 10.7873 10.9698 10.4848C10.9698 10.2156 10.8713 10.0013 10.6745 9.84071C10.4777 9.68011 10.2287 9.59904 9.9262 9.59904C9.63096 9.59904 9.39644 9.67725 9.22275 9.83499C9.04906 9.99273 8.92311 10.1867 8.84358 10.4153L7.84929 10.0014C7.98096 9.62797 8.22274 9.29797 8.57727 9.01285C8.93191 8.72773 9.38489 8.5844 9.93489 8.5844C10.3416 8.5844 10.7078 8.66261 11.032 8.82035C11.3562 8.97809 11.611 9.19666 11.7948 9.47452C11.9786 9.75381 12.0698 10.0665 12.0698 10.4138C12.0698 10.7684 11.9844 11.068 11.8136 11.314C11.6428 11.5601 11.4329 11.7482 11.1839 11.88V11.9393C11.5125 12.0768 11.7803 12.2867 11.9916 12.5689C12.2014 12.8512 12.307 13.1884 12.307 13.5821C12.307 13.9758 12.2072 14.3275 12.0074 14.6358C11.8076 14.9441 11.5312 15.1872 11.181 15.3638C10.8293 15.5403 10.4342 15.6301 9.99561 15.6301C9.48763 15.6315 9.0187 15.4853 8.58596 15.193Z" fill="#4285F4"/>
<path d="M14.7497 10.2084L13.6525 11.0059L13.1011 10.1694L15.0797 8.74225H15.8381V15.4739H14.7497V10.2084Z" fill="#4285F4"/>
<path d="M17.7895 23.0001L23 17.7897L20.3947 16.6318L17.7895 17.7897L16.6316 20.3949L17.7895 23.0001Z" fill="#EA4335"/>
<path d="M5.05282 20.3948L6.21068 23.0001L17.7895 23.0001V17.7897L6.21068 17.7896L5.05282 20.3948Z" fill="#34A853"/>
<path d="M2.73682 1.00012C1.77729 1.00012 1.00003 1.77738 1.00003 2.73691V17.7895L3.60527 18.9473L6.21068 17.7896L6.21052 6.21058H17.7895L18.9473 3.60535L17.7896 1.00012H2.73682Z" fill="#4285F4"/>
<path d="M1.00003 17.7895L1 21.2632C1 22.2228 1.77726 23 2.73679 23L6.21068 23.0001V17.7896L1.00003 17.7895Z" fill="#188038"/>
<path d="M17.7895 6.21058L17.7895 17.7897H23L23 6.21048L20.3947 5.05262L17.7895 6.21058Z" fill="#FBBC05"/>
<path d="M23 6.21048V2.73693C23 1.77729 22.2227 1.00015 21.2632 1.00015L17.7896 1.00012L17.7895 6.21058L23 6.21048Z" fill="#1967D2"/>
</svg>
