<svg width="23" height="22" viewBox="0 0 23 22" fill="none" xmlns="http://www.w3.org/2000/svg">
<path d="M21.18 11.2295C21.18 10.5145 21.1158 9.82699 20.9967 9.16699H11.5V13.072H16.9267C16.6883 14.3278 15.9733 15.3912 14.9008 16.1062V18.6453H18.1733C20.08 16.8853 21.18 14.3003 21.18 11.2295Z" fill="#4285F4"/>
<path d="M11.5 21.0831C14.2225 21.0831 16.505 20.1848 18.1733 18.6448L14.9008 16.1056C14.0025 16.7106 12.8566 17.0773 11.5 17.0773C8.87829 17.0773 6.65079 15.3081 5.85329 12.9248H2.49829V15.5281C4.15746 18.819 7.55829 21.0831 11.5 21.0831Z" fill="#34A853"/>
<path d="M5.85342 12.9155C5.65175 12.3105 5.53258 11.6688 5.53258 10.9996C5.53258 10.3305 5.65175 9.6888 5.85342 9.0838V6.48047H2.49841C1.81091 7.83714 1.41675 9.36797 1.41675 10.9996C1.41675 12.6313 1.81091 14.1621 2.49841 15.5188L5.11091 13.4838L5.85342 12.9155Z" fill="#FBBC05"/>
<path d="M11.5 4.93199C12.985 4.93199 14.305 5.44533 15.3591 6.43533L18.2466 3.54783C16.4958 1.91616 14.2225 0.916992 11.5 0.916992C7.55829 0.916992 4.15746 3.18116 2.49829 6.48116L5.85329 9.08449C6.65079 6.70116 8.87829 4.93199 11.5 4.93199Z" fill="#EA4335"/>
</svg>
