<svg width="116" height="30" viewBox="0 0 116 30" fill="none" xmlns="http://www.w3.org/2000/svg">
<path d="M17.9315 14.0314L15.9694 12.0692C15.4299 11.5298 14.5554 11.5298 14.016 12.0692L12.0539 14.0314C11.5144 14.5708 11.5144 15.4453 12.0539 15.9847L14.016 17.9469C14.5554 18.4863 15.4299 18.4863 15.9694 17.9469L17.9315 15.9847C18.4709 15.4453 18.4709 14.5708 17.9315 14.0314Z" fill="#F5811A"/>
<path d="M9.444 17.8765L8.65877 17.0913C7.51718 15.9497 7.51718 14.0995 8.65877 12.958L12.9572 8.65956C13.0131 8.60363 13.0704 8.55183 13.1298 8.50141L9.22093 4.59253L0.856191 12.958C-0.285397 14.0995 -0.285397 15.9497 0.856191 17.0913L12.9088 29.1439C14.0504 30.2855 15.9006 30.2855 17.0422 29.1439L18.8771 27.309L12.9578 21.3897L9.44469 17.8765H9.444Z" fill="#011565"/>
<path d="M12.958 0.856191L11.123 2.69116L20.5631 12.1312L21.3897 12.9578C22.5313 14.0994 22.5313 15.9496 21.3897 17.0912L17.0913 21.3896C17.0354 21.4455 16.9781 21.4973 16.9187 21.5477L20.7785 25.4076L29.144 17.0422C30.2856 15.9006 30.2856 14.0504 29.144 12.9088L17.0913 0.856191C15.9498 -0.285397 14.0996 -0.285397 12.958 0.856191Z" fill="#011565"/>
<path d="M42.8284 18.829C42.1585 18.829 41.5936 18.7938 41.5936 18.7938V23.6612C41.5936 24.6136 41.5936 25.2835 41.1702 25.8484C40.7469 26.4126 40.0418 26.6951 38.8774 26.6951C37.713 26.6951 36.9727 26.4126 36.5493 25.8484C36.126 25.2842 36.126 24.6136 36.126 23.6612V7.01325C36.126 5.81434 36.126 4.64996 37.925 3.98007C38.8774 3.62716 40.4644 3.41583 42.3691 3.41583C44.7324 3.41583 47.307 3.73352 49.3879 5.03809C51.363 6.27291 52.5619 8.21285 52.5619 10.9988C52.5619 16.3248 48.2235 18.829 42.827 18.829H42.8284ZM41.5943 14.4553C41.5943 14.4553 42.0176 14.5258 42.6523 14.5258C44.8747 14.5258 46.9555 13.7143 46.9555 11.2806C46.9555 9.05816 45.2621 8.07058 42.8643 8.07058C42.2296 8.07058 41.5943 8.14103 41.5943 8.14103V14.4546V14.4553Z" fill="#011565"/>
<path d="M67.8717 21.5452C68.8241 21.5452 69.4587 21.5452 70.023 21.9333C70.552 22.3214 70.8697 22.9561 70.8697 24.0494C70.8697 25.1426 70.552 25.7421 70.023 26.1302C69.4587 26.5183 68.8234 26.5183 67.8717 26.5183H59.1948C57.2549 26.5183 56.585 25.7773 56.585 23.9085V6.51947C56.585 5.53189 56.585 4.86199 57.0083 4.29707C57.4317 3.73284 58.172 3.4856 59.3716 3.4856C60.5712 3.4856 61.3115 3.73284 61.7349 4.29707C62.1582 4.8613 62.1582 5.53189 62.1582 6.51947V21.5452H67.8724H67.8717Z" fill="#011565"/>
<path d="M87.1995 21.2627H79.1932L78.1352 24.1198C77.4653 25.8836 76.7595 26.6944 74.7843 26.6944C73.0205 26.6944 72.3506 26.0597 72.3506 25.0722C72.3506 24.684 72.4562 24.2959 72.7387 23.626L80.0751 6.06089C80.7802 4.40341 81.4861 3.45105 83.4612 3.45105C85.4364 3.45105 86.071 4.40341 86.7416 6.06089L93.7963 23.6964C94.0076 24.2255 94.114 24.6488 94.114 25.0017C94.114 26.095 93.2673 26.6944 91.5041 26.6944C89.6346 26.6944 88.9647 25.9893 88.2589 24.1198L87.2009 21.2627H87.1995ZM80.8155 16.8891H85.6125L83.214 10.505L80.8155 16.8891Z" fill="#011565"/>
<path d="M107.905 21.8622C108.858 21.8622 109.704 21.6861 110.586 21.3332C111.644 20.9098 112.315 20.416 113.055 20.416C114.501 20.416 115.277 22.1447 115.277 23.2027C115.277 24.0846 114.713 24.8249 113.69 25.4603C112.068 26.4479 109.67 26.9065 107.588 26.9065C101.134 26.9065 96.0542 22.568 96.0542 15.0555C96.0542 7.15485 101.627 3.23975 107.694 3.23975C109.916 3.23975 112.244 3.76876 113.69 4.65067C114.783 5.32057 115.277 6.0616 115.277 6.94352C115.277 8.03676 114.536 9.76537 113.054 9.76537C112.278 9.76537 111.538 9.3068 110.409 8.84824C109.527 8.49533 108.646 8.284 107.623 8.284C104.519 8.284 101.697 10.2944 101.697 14.9505C101.697 19.6066 104.66 21.8636 107.905 21.8636V21.8622Z" fill="#011565"/>
</svg>
