<svg width="116" height="30" viewBox="0 0 116 30" fill="none" xmlns="http://www.w3.org/2000/svg">
<path d="M17.9315 14.0316L15.9694 12.0695C15.4299 11.53 14.5554 11.53 14.016 12.0695L12.0539 14.0316C11.5144 14.571 11.5144 15.4455 12.0539 15.985L14.016 17.9471C14.5554 18.4865 15.4299 18.4865 15.9694 17.9471L17.9315 15.985C18.4709 15.4455 18.4709 14.571 17.9315 14.0316Z" fill="white"/>
<path d="M9.444 17.8768L8.65877 17.0915C7.51718 15.9499 7.51718 14.0998 8.65877 12.9582L12.9572 8.65981C13.0131 8.60387 13.0704 8.55207 13.1298 8.50166L9.22093 4.59277L0.856191 12.9582C-0.285397 14.0998 -0.285397 15.9499 0.856191 17.0915L12.9088 29.1442C14.0504 30.2857 15.9006 30.2857 17.0422 29.1442L18.8771 27.3092L12.9578 21.3899L9.44469 17.8768H9.444Z" fill="white"/>
<path d="M12.958 0.856191L11.123 2.69116L20.5631 12.1312L21.3897 12.9578C22.5313 14.0994 22.5313 15.9496 21.3897 17.0912L17.0913 21.3896C17.0354 21.4455 16.9781 21.4973 16.9187 21.5477L20.7785 25.4076L29.144 17.0422C30.2856 15.9006 30.2856 14.0504 29.144 12.9088L17.0913 0.856191C15.9498 -0.285397 14.0996 -0.285397 12.958 0.856191Z" fill="white"/>
<path d="M42.8282 18.8292C42.1583 18.8292 41.5933 18.794 41.5933 18.794V23.6614C41.5933 24.6138 41.5933 25.2837 41.17 25.8486C40.7466 26.4128 40.0415 26.6953 38.8771 26.6953C37.7128 26.6953 36.9724 26.4128 36.5491 25.8486C36.1257 25.2844 36.1257 24.6138 36.1257 23.6614V7.01343C36.1257 5.81452 36.1257 4.65015 37.9248 3.98025C38.8771 3.62734 40.4642 3.41602 42.3689 3.41602C44.7322 3.41602 47.3068 3.7337 49.3876 5.03827C51.3628 6.27309 52.5617 8.21303 52.5617 10.999C52.5617 16.325 48.2232 18.8292 42.8268 18.8292H42.8282ZM41.594 14.4555C41.594 14.4555 42.0174 14.526 42.6521 14.526C44.8745 14.526 46.9553 13.7145 46.9553 11.2807C46.9553 9.05835 45.2619 8.07077 42.8641 8.07077C42.2294 8.07077 41.594 8.14121 41.594 8.14121V14.4548V14.4555Z" fill="white"/>
<path d="M67.8714 21.545C68.8238 21.545 69.4585 21.545 70.0227 21.9331C70.5517 22.3212 70.8694 22.9559 70.8694 24.0491C70.8694 25.1424 70.5517 25.7418 70.0227 26.13C69.4585 26.5181 68.8231 26.5181 67.8714 26.5181H59.1946C57.2546 26.5181 56.5847 25.777 56.5847 23.9082V6.51923C56.5847 5.53165 56.5847 4.86175 57.0081 4.29683C57.4314 3.73259 58.1718 3.48535 59.3713 3.48535C60.5709 3.48535 61.3113 3.73259 61.7346 4.29683C62.158 4.86106 62.158 5.53165 62.158 6.51923V21.545H67.8721H67.8714Z" fill="white"/>
<path d="M87.1995 21.2628H79.1932L78.1352 24.1199C77.4653 25.8838 76.7595 26.6945 74.7843 26.6945C73.0205 26.6945 72.3506 26.0599 72.3506 25.0723C72.3506 24.6842 72.4562 24.296 72.7387 23.6261L80.0751 6.06101C80.7802 4.40353 81.4861 3.45117 83.4612 3.45117C85.4364 3.45117 86.071 4.40353 86.7416 6.06101L93.7963 23.6966C94.0076 24.2256 94.114 24.6489 94.114 25.0018C94.114 26.0951 93.2673 26.6945 91.5041 26.6945C89.6346 26.6945 88.9647 25.9894 88.2589 24.1199L87.2009 21.2628H87.1995ZM80.8155 16.8892H85.6125L83.214 10.5051L80.8155 16.8892Z" fill="white"/>
<path d="M107.905 21.8617C108.858 21.8617 109.704 21.6856 110.586 21.3327C111.644 20.9094 112.315 20.4156 113.055 20.4156C114.501 20.4156 115.277 22.1442 115.277 23.2022C115.277 24.0841 114.713 24.8245 113.69 25.4598C112.068 26.4474 109.67 26.906 107.588 26.906C101.134 26.906 96.0542 22.5675 96.0542 15.055C96.0542 7.15436 101.627 3.23926 107.694 3.23926C109.916 3.23926 112.244 3.76827 113.69 4.65019C114.783 5.32008 115.277 6.06111 115.277 6.94303C115.277 8.03627 114.536 9.76488 113.054 9.76488C112.278 9.76488 111.538 9.30632 110.409 8.84775C109.527 8.49484 108.646 8.28351 107.623 8.28351C104.519 8.28351 101.697 10.2939 101.697 14.95C101.697 19.6062 104.66 21.8631 107.905 21.8631V21.8617Z" fill="white"/>
</svg>
